<?xml version="1.0" standalone="no"?>
<!DOCTYPE svg PUBLIC "-//W3C//DTD SVG 20010904//EN"
 "http://www.w3.org/TR/2001/REC-SVG-20010904/DTD/svg10.dtd">
<svg version="1.0" xmlns="http://www.w3.org/2000/svg"
 width="647.000000pt" height="172.000000pt" viewBox="0 0 647.000000 172.000000"
 preserveAspectRatio="xMidYMid meet">
<metadata>
Created by potrace 1.16, written by Peter Selinger 2001-2019
</metadata>
<g transform="translate(0.000000,172.000000) scale(0.100000,-0.100000)"
fill="#000000" stroke="none">
<path d="M1831 1579 c-45 -14 -102 -51 -133 -88 -51 -59 -53 -80 -53 -446 0
-377 2 -389 63 -457 46 -51 102 -79 172 -85 72 -7 121 9 164 53 l34 35 12 -35
12 -36 84 0 84 0 0 278 c0 153 -2 281 -4 283 -2 2 -74 3 -160 1 l-156 -3 0
-74 c0 -73 0 -74 28 -77 27 -3 27 -4 30 -88 2 -47 -2 -102 -8 -123 -10 -35
-14 -38 -43 -35 -23 2 -33 9 -38 28 -4 14 -7 170 -8 346 -1 297 0 324 17 344
13 16 24 21 39 16 27 -9 33 -32 33 -138 l0 -88 136 0 137 0 -5 104 c-4 86 -9
113 -29 153 -30 58 -92 107 -161 128 -57 17 -194 19 -247 4z"/>
<path d="M2380 1045 l0 -525 135 0 135 0 2 238 3 237 25 -3 c53 -7 55 -15 58
-252 l3 -220 125 0 125 0 -3 223 c-3 216 -4 223 -27 256 -13 18 -42 42 -65 52
-34 15 -38 19 -21 24 101 34 110 50 110 210 0 108 -2 125 -25 170 -49 98 -107
115 -385 115 l-195 0 0 -525z m344 323 c20 -28 21 -142 3 -178 -9 -17 -22 -26
-45 -28 l-32 -3 0 115 0 116 29 0 c20 0 35 -8 45 -22z"/>
<path d="M3107 1053 c-37 -285 -67 -521 -67 -525 0 -5 63 -8 139 -8 l139 0 8
93 9 92 50 0 50 0 2 -50 c2 -27 5 -69 9 -92 l5 -43 140 0 139 0 -5 23 c-3 12
-37 236 -75 497 -39 261 -73 487 -76 503 l-6 27 -197 0 -197 0 -67 -517z m316
-115 l5 -38 -49 0 -49 0 5 43 c5 35 42 342 46 372 1 6 10 -69 19 -165 10 -96
20 -192 23 -212z"/>
<path d="M3780 1045 l0 -525 115 0 115 0 1 333 c0 182 3 325 6 317 4 -8 27
-157 52 -330 l46 -315 85 -3 85 -3 45 338 45 338 3 -337 2 -338 120 0 120 0 0
525 0 525 -180 0 c-180 0 -180 0 -181 -22 -1 -59 -57 -441 -62 -428 -3 8 -17
101 -32 205 -14 105 -28 202 -31 218 l-6 27 -174 0 -174 0 0 -525z"/>
<path d="M4730 1045 l0 -525 235 0 235 0 1 45 c1 25 2 71 3 103 l1 57 -102 3
-103 3 0 114 0 115 85 0 c61 0 85 4 86 13 0 6 1 50 1 97 l0 85 -84 5 -83 5 -3
97 -3 97 93 3 93 3 3 103 3 102 -231 0 -230 0 0 -525z"/>
<path d="M5280 1045 l1 -525 239 0 240 0 0 105 0 105 -100 0 -100 0 0 115 0
115 85 0 85 0 0 100 0 100 -85 0 -85 0 0 100 0 100 90 0 90 0 0 105 0 105
-230 0 -230 0 0 -525z"/>
<path d="M5840 1045 l0 -525 115 0 115 0 2 228 3 227 49 -165 c27 -91 57 -193
68 -228 l19 -62 119 0 120 0 0 525 0 525 -115 0 -115 0 -1 -227 -1 -228 -75
228 -75 227 -114 0 -114 0 0 -525z"/>
<path d="M292 1477 c-5 -7 -12 -24 -16 -39 -6 -25 0 -31 53 -68 33 -22 71 -40
85 -40 14 0 30 -8 35 -19 6 -10 24 -21 41 -24 28 -6 30 -9 30 -54 1 -27 7 -59
15 -73 8 -14 14 -35 15 -48 0 -27 32 -93 54 -111 9 -8 16 -24 16 -36 0 -13 7
-25 15 -29 8 -3 15 -11 15 -18 0 -7 18 -33 41 -58 22 -25 49 -55 60 -67 12
-13 27 -19 39 -16 16 4 20 0 20 -22 0 -32 44 -95 65 -95 8 0 21 -13 30 -29 8
-16 25 -33 37 -36 13 -4 34 -18 48 -31 l25 -23 42 35 c40 33 42 37 41 87 -1
40 -8 61 -30 92 -36 50 -34 80 6 80 l29 0 -1 157 c-2 164 -12 240 -37 264 -10
11 -55 17 -157 23 l-143 7 -155 68 c-314 138 -308 135 -318 123z"/>
<path d="M2627 333 c-4 -3 -7 -58 -7 -121 l0 -114 76 4 c69 3 79 6 100 31 45
53 25 176 -32 197 -29 11 -127 13 -137 3z"/>
<path d="M2870 220 l0 -120 90 0 c83 0 90 1 90 20 0 18 -7 20 -71 20 l-70 0 3
33 c3 32 4 32 61 35 41 2 57 7 57 17 0 10 -16 15 -57 17 -55 3 -58 4 -61 31
l-3 27 65 0 c59 0 66 2 66 20 0 18 -7 20 -85 20 l-85 0 0 -120z"/>
<path d="M3187 334 c-4 -4 -7 -58 -7 -121 l0 -113 85 0 c78 0 85 2 85 20 0 18
-7 20 -60 20 l-59 0 -3 97 c-2 79 -6 98 -18 101 -9 1 -19 0 -23 -4z"/>
<path d="M3408 223 c-44 -114 -45 -118 -25 -121 12 -2 23 0 25 6 9 29 31 45
63 44 56 0 58 -1 65 -27 5 -19 13 -25 34 -25 l28 0 -47 118 c-41 103 -50 117
-73 120 -23 3 -28 -4 -70 -115z"/>
<path d="M3708 333 c-2 -5 -4 -57 -3 -118 0 -106 1 -110 23 -113 20 -3 22 0
22 47 l0 51 50 0 c43 0 50 3 50 20 0 17 -7 20 -50 20 -49 0 -50 1 -50 30 l0
30 60 0 c53 0 60 2 60 20 0 18 -7 20 -79 20 -44 0 -81 -3 -83 -7z"/>
<path d="M3910 221 l0 -121 25 0 c23 0 25 3 25 50 0 37 4 50 15 50 16 0 49
-32 73 -72 12 -20 24 -28 45 -28 l29 0 -17 27 c-10 16 -29 40 -43 56 -19 20
-22 27 -10 27 40 0 62 67 34 105 -12 16 -29 20 -95 23 l-81 4 0 -121z"/>
<path d="M4179 312 c-24 -21 -32 -38 -36 -75 -10 -88 32 -137 116 -137 108 0
151 151 63 220 -38 31 -104 27 -143 -8z m121 -32 c24 -24 27 -86 4 -118 -10
-15 -25 -22 -49 -22 -41 0 -65 29 -65 80 0 72 63 107 110 60z"/>
<path d="M4410 220 c0 -112 1 -120 20 -120 17 0 19 8 22 77 l3 77 46 -75 c36
-59 51 -75 72 -77 l27 -3 0 120 0 121 -25 0 c-25 0 -25 -2 -25 -77 l0 -78 -50
78 c-35 54 -55 77 -70 77 -19 0 -20 -6 -20 -120z"/>
<path d="M4630 320 c0 -16 7 -20 35 -20 l35 0 0 -100 0 -100 25 0 25 0 0 100
0 100 35 0 c28 0 35 4 35 20 0 19 -7 20 -95 20 -88 0 -95 -1 -95 -20z"/>
<path d="M4850 220 l0 -120 90 0 c83 0 90 1 90 20 0 18 -7 20 -65 20 l-65 0 0
35 0 35 60 0 c47 0 60 3 60 15 0 12 -13 15 -60 15 l-60 0 0 30 0 30 65 0 c58
0 65 2 65 20 0 19 -7 20 -90 20 l-90 0 0 -120z"/>
<path d="M5077 333 c-4 -3 -7 -57 -7 -120 l0 -113 25 0 c23 0 25 3 25 50 0 43
3 50 20 50 13 0 33 -19 56 -50 26 -36 43 -50 60 -50 32 0 30 10 -10 63 -31 41
-33 46 -15 50 50 13 46 97 -7 117 -29 11 -137 14 -147 3z"/>
<path d="M5359 273 c-15 -37 -36 -92 -48 -120 l-21 -53 26 0 c18 0 28 7 35 28
9 25 12 27 58 24 40 -3 51 -8 60 -28 7 -16 19 -24 36 -24 l25 0 -19 47 c-72
178 -77 188 -102 191 -21 2 -27 -5 -50 -65z"/>
</g>
</svg>
