<?xml version="1.0" standalone="no"?>
<!DOCTYPE svg PUBLIC "-//W3C//DTD SVG 20010904//EN"
 "http://www.w3.org/TR/2001/REC-SVG-20010904/DTD/svg10.dtd">
<svg version="1.0" xmlns="http://www.w3.org/2000/svg"
 width="555.000000pt" height="617.000000pt" viewBox="0 0 555.000000 617.000000"
 preserveAspectRatio="xMidYMid meet">
<metadata>
Created by potrace 1.16, written by Peter Selinger 2001-2019
</metadata>
<g transform="translate(0.000000,617.000000) scale(0.100000,-0.100000)"
fill="#000000" stroke="none">
<path d="M3378 6114 c-26 -24 -45 -44 -42 -44 2 0 -23 -33 -57 -72 -89 -106
-178 -244 -256 -398 -86 -170 -91 -181 -154 -375 -28 -88 -55 -168 -60 -177
-5 -10 -9 -19 -9 -20 0 -2 17 -4 38 -5 20 -1 57 -4 82 -7 25 -3 59 -6 77 -6
18 0 35 -5 38 -10 3 -6 17 -7 30 -4 12 3 26 1 30 -5 3 -6 17 -8 30 -5 12 3 26
1 29 -4 3 -6 15 -8 25 -5 10 3 22 0 25 -6 4 -5 13 -8 20 -5 8 3 17 1 20 -4 3
-6 15 -8 26 -5 11 3 20 1 20 -5 0 -6 9 -8 20 -5 11 3 20 0 20 -6 0 -5 6 -8 14
-5 8 3 17 1 20 -5 4 -6 13 -8 21 -4 8 3 15 0 15 -7 0 -7 7 -10 15 -7 8 4 17 2
20 -3 3 -5 12 -7 20 -3 8 3 15 0 15 -6 0 -6 7 -8 15 -5 8 4 15 1 15 -5 0 -6 7
-8 15 -5 8 4 15 1 15 -5 0 -6 7 -8 15 -5 8 4 15 2 15 -3 0 -5 10 -9 22 -10 11
-1 25 -8 29 -15 5 -7 9 -9 9 -4 0 5 6 3 13 -3 8 -6 17 -8 20 -4 4 3 7 2 7 -3
0 -5 10 -11 22 -11 13 -1 24 -7 26 -13 2 -5 8 -8 13 -4 5 3 9 0 9 -6 0 -6 5
-8 10 -5 6 3 10 1 10 -5 0 -6 5 -8 10 -5 6 3 10 1 10 -5 0 -6 5 -8 10 -5 6 3
10 1 10 -5 0 -6 5 -8 10 -5 6 3 10 1 10 -5 0 -6 5 -8 10 -5 6 3 10 1 10 -5 0
-6 5 -8 10 -5 6 3 10 1 10 -5 0 -6 5 -8 10 -5 6 3 10 1 10 -5 0 -6 5 -8 10 -5
6 3 10 1 10 -5 0 -6 5 -8 10 -5 6 3 13 -1 16 -9 3 -9 10 -13 15 -10 5 3 9 0 9
-6 0 -6 5 -8 10 -5 6 3 13 -1 16 -9 3 -9 10 -13 15 -10 5 3 9 0 9 -5 0 -6 7
-11 15 -11 8 0 15 -4 15 -10 0 -5 7 -10 15 -10 9 0 18 -7 21 -15 4 -8 10 -12
15 -9 5 3 12 -2 15 -10 3 -9 13 -16 20 -16 8 0 18 -8 22 -17 4 -10 14 -18 22
-18 8 0 19 -9 25 -20 6 -11 17 -21 25 -23 21 -5 80 -63 80 -80 0 -7 4 -11 9
-8 11 7 33 -18 24 -27 -3 -4 1 -7 9 -7 9 0 29 -15 44 -34 56 -64 79 -94 94
-116 8 -12 20 -28 25 -34 22 -23 75 -105 75 -115 0 -6 4 -11 9 -11 8 0 125
-227 142 -275 4 -11 15 -37 24 -59 9 -21 18 -44 20 -50 1 -6 5 -19 9 -28 4 -9
8 -22 10 -30 1 -7 4 -17 7 -23 4 -5 10 -23 14 -40 4 -16 9 -37 11 -45 2 -8 10
-40 18 -70 8 -30 18 -73 21 -95 3 -22 7 -51 10 -65 16 -75 22 -130 25 -220 2
-72 2 -74 15 -45 8 17 22 60 32 98 9 37 20 67 24 67 3 0 4 11 1 25 -2 14 0 25
5 25 5 0 8 13 5 30 -2 16 0 30 5 30 5 0 8 13 5 30 -2 17 0 30 5 30 5 0 7 18 5
40 -2 22 0 40 5 40 5 0 8 25 6 55 -1 30 1 55 5 55 12 0 0 322 -13 353 -4 9 -5
24 -2 32 4 8 1 17 -4 21 -6 3 -9 15 -6 25 3 10 2 19 -2 21 -3 2 -17 39 -29 83
-21 70 -97 251 -112 265 -3 3 -22 31 -43 62 -20 32 -62 87 -92 123 -30 35 -55
66 -55 68 0 4 -292 292 -365 359 -33 30 -87 79 -119 109 -53 48 -380 373 -442
439 -13 14 -24 31 -24 38 0 6 -4 12 -9 12 -22 0 -138 186 -180 287 -37 90 -65
207 -57 238 4 14 2 25 -3 25 -5 0 -11 11 -13 24 -3 24 -4 24 -50 -20z"/>
</g>
</svg>
